<?xml version="1.0" encoding="UTF-8" standalone="no"?>
<svg width="1841px" height="372px" viewBox="0 0 1841 372" version="1.1" xmlns="http://www.w3.org/2000/svg" xmlns:xlink="http://www.w3.org/1999/xlink">
    <!-- Generator: Sketch 3.8.3 (29802) - http://www.bohemiancoding.com/sketch -->
    <title>download formats</title>
    <desc>Created with Sketch.</desc>
    <defs></defs>
    <g id="Page-1" stroke="none" stroke-width="1" fill="none" fill-rule="evenodd">
        <g id="Artboard-4" transform="translate(-3057.000000, -924.000000)">
            <g id="download-formats" transform="translate(3057.000000, 924.000000)">
                <g id="txt">
                    <g id="Group" fill="#85D0F1">
                        <g id="Shape">
                            <path d="M274.71951,371.719775 L66.8517426,371.719775 C30.0706064,371.719775 0.147802098,348.221874 0.147802098,319.338234 L0.147802098,52.5018624 C0.147802098,23.6182225 30.0706064,0.120321399 66.8517426,0.120321399 L274.726523,0.120321399 C311.507659,0.120321399 341.430463,23.6182225 341.430463,52.5018624 L341.430463,319.338234 C341.423451,348.221874 311.500646,371.719775 274.71951,371.719775 L274.71951,371.719775 Z M66.8517426,19.2402447 C43.4997533,19.2402447 24.4955819,34.1639175 24.4955819,52.5018624 L24.4955819,319.338234 C24.4955819,337.676179 43.4997533,352.599852 66.8517426,352.599852 L274.71951,352.599852 C298.071499,352.599852 317.075671,337.676179 317.075671,319.338234 L317.082683,52.5018624 C317.082683,34.1639175 298.078512,19.2402447 274.726523,19.2402447 L66.8517426,19.2402447 L66.8517426,19.2402447 Z"></path>
                            <path d="M242.047661,149.984835 C239.352167,147.655421 234.987124,147.655421 232.29163,149.984835 L177.693543,197.167872 L177.693543,73.5822386 C177.693543,70.2891182 174.602965,67.6182764 170.792314,67.6182764 C166.981663,67.6182764 163.891085,70.2891182 163.891085,73.5822386 L163.891085,197.173379 L109.292998,149.990342 C106.597504,147.660928 102.232461,147.660928 99.5369672,149.990342 C96.8414734,152.319757 96.8414734,156.091977 99.5369672,158.421391 L165.503284,215.42872 C165.624358,215.555379 165.751804,215.682037 165.891996,215.803189 C167.236556,216.965143 169.001691,217.548873 170.766825,217.548873 L170.785942,217.548873 L170.805059,217.548873 C172.570193,217.548873 174.335327,216.965143 175.679888,215.803189 C175.820079,215.682037 175.947526,215.555379 176.0686,215.42872 L242.034916,158.421391 C244.736782,156.08647 244.736782,152.31425 242.047661,149.984835 L242.047661,149.984835 Z"></path>
                        </g>
                    </g>
                    <text id=".TXT" font-family="DINAlternate-Bold, DIN Alternate" font-size="72.7538905" font-weight="bold" fill="#99D1EE">
                        <tspan x="100.434458" y="291.058579">.TXT</tspan>
                    </text>
                </g>
                <g id="xml" transform="translate(1498.771022, 0.000000)">
                    <g id="Group" fill="#85D0F1">
                        <g id="Shape">
                            <path d="M274.71951,371.719775 L66.8517426,371.719775 C30.0706064,371.719775 0.147802098,348.221874 0.147802098,319.338234 L0.147802098,52.5018624 C0.147802098,23.6182225 30.0706064,0.120321399 66.8517426,0.120321399 L274.726523,0.120321399 C311.507659,0.120321399 341.430463,23.6182225 341.430463,52.5018624 L341.430463,319.338234 C341.423451,348.221874 311.500646,371.719775 274.71951,371.719775 L274.71951,371.719775 Z M66.8517426,19.2402447 C43.4997533,19.2402447 24.4955819,34.1639175 24.4955819,52.5018624 L24.4955819,319.338234 C24.4955819,337.676179 43.4997533,352.599852 66.8517426,352.599852 L274.71951,352.599852 C298.071499,352.599852 317.075671,337.676179 317.075671,319.338234 L317.082683,52.5018624 C317.082683,34.1639175 298.078512,19.2402447 274.726523,19.2402447 L66.8517426,19.2402447 L66.8517426,19.2402447 Z"></path>
                            <path d="M242.047661,149.984835 C239.352167,147.655421 234.987124,147.655421 232.29163,149.984835 L177.693543,197.167872 L177.693543,73.5822386 C177.693543,70.2891182 174.602965,67.6182764 170.792314,67.6182764 C166.981663,67.6182764 163.891085,70.2891182 163.891085,73.5822386 L163.891085,197.173379 L109.292998,149.990342 C106.597504,147.660928 102.232461,147.660928 99.5369672,149.990342 C96.8414734,152.319757 96.8414734,156.091977 99.5369672,158.421391 L165.503284,215.42872 C165.624358,215.555379 165.751804,215.682037 165.891996,215.803189 C167.236556,216.965143 169.001691,217.548873 170.766825,217.548873 L170.785942,217.548873 L170.805059,217.548873 C172.570193,217.548873 174.335327,216.965143 175.679888,215.803189 C175.820079,215.682037 175.947526,215.555379 176.0686,215.42872 L242.034916,158.421391 C244.736782,156.08647 244.736782,152.31425 242.047661,149.984835 L242.047661,149.984835 Z"></path>
                        </g>
                    </g>
                    <text id=".XML" font-family="DINAlternate-Bold, DIN Alternate" font-size="72.7538905" font-weight="bold" fill="#99D1EE">
                        <tspan x="89.013376" y="291.058579">.XML</tspan>
                    </text>
                </g>
                <g id="srt" transform="translate(1124.078267, 0.000000)">
                    <g id="Group" fill="#85D0F1">
                        <g id="Shape">
                            <path d="M274.71951,371.719775 L66.8517426,371.719775 C30.0706064,371.719775 0.147802098,348.221874 0.147802098,319.338234 L0.147802098,52.5018624 C0.147802098,23.6182225 30.0706064,0.120321399 66.8517426,0.120321399 L274.726523,0.120321399 C311.507659,0.120321399 341.430463,23.6182225 341.430463,52.5018624 L341.430463,319.338234 C341.423451,348.221874 311.500646,371.719775 274.71951,371.719775 L274.71951,371.719775 Z M66.8517426,19.2402447 C43.4997533,19.2402447 24.4955819,34.1639175 24.4955819,52.5018624 L24.4955819,319.338234 C24.4955819,337.676179 43.4997533,352.599852 66.8517426,352.599852 L274.71951,352.599852 C298.071499,352.599852 317.075671,337.676179 317.075671,319.338234 L317.082683,52.5018624 C317.082683,34.1639175 298.078512,19.2402447 274.726523,19.2402447 L66.8517426,19.2402447 L66.8517426,19.2402447 Z"></path>
                            <path d="M242.047661,149.984835 C239.352167,147.655421 234.987124,147.655421 232.29163,149.984835 L177.693543,197.167872 L177.693543,73.5822386 C177.693543,70.2891182 174.602965,67.6182764 170.792314,67.6182764 C166.981663,67.6182764 163.891085,70.2891182 163.891085,73.5822386 L163.891085,197.173379 L109.292998,149.990342 C106.597504,147.660928 102.232461,147.660928 99.5369672,149.990342 C96.8414734,152.319757 96.8414734,156.091977 99.5369672,158.421391 L165.503284,215.42872 C165.624358,215.555379 165.751804,215.682037 165.891996,215.803189 C167.236556,216.965143 169.001691,217.548873 170.766825,217.548873 L170.785942,217.548873 L170.805059,217.548873 C172.570193,217.548873 174.335327,216.965143 175.679888,215.803189 C175.820079,215.682037 175.947526,215.555379 176.0686,215.42872 L242.034916,158.421391 C244.736782,156.08647 244.736782,152.31425 242.047661,149.984835 L242.047661,149.984835 Z"></path>
                        </g>
                    </g>
                    <text id=".SRT" font-family="DINAlternate-Bold, DIN Alternate" font-size="72.7538905" font-weight="bold" fill="#99D1EE">
                        <tspan x="95.0702795" y="291.058579">.SRT</tspan>
                    </text>
                </g>
                <g id="webvtt" transform="translate(374.692756, 0.000000)">
                    <g id="Group" fill="#85D0F1">
                        <g id="Shape">
                            <path d="M274.71951,371.719775 L66.8517426,371.719775 C30.0706064,371.719775 0.147802098,348.221874 0.147802098,319.338234 L0.147802098,52.5018624 C0.147802098,23.6182225 30.0706064,0.120321399 66.8517426,0.120321399 L274.726523,0.120321399 C311.507659,0.120321399 341.430463,23.6182225 341.430463,52.5018624 L341.430463,319.338234 C341.423451,348.221874 311.500646,371.719775 274.71951,371.719775 L274.71951,371.719775 Z M66.8517426,19.2402447 C43.4997533,19.2402447 24.4955819,34.1639175 24.4955819,52.5018624 L24.4955819,319.338234 C24.4955819,337.676179 43.4997533,352.599852 66.8517426,352.599852 L274.71951,352.599852 C298.071499,352.599852 317.075671,337.676179 317.075671,319.338234 L317.082683,52.5018624 C317.082683,34.1639175 298.078512,19.2402447 274.726523,19.2402447 L66.8517426,19.2402447 L66.8517426,19.2402447 Z"></path>
                            <path d="M242.047661,149.984835 C239.352167,147.655421 234.987124,147.655421 232.29163,149.984835 L177.693543,197.167872 L177.693543,73.5822386 C177.693543,70.2891182 174.602965,67.6182764 170.792314,67.6182764 C166.981663,67.6182764 163.891085,70.2891182 163.891085,73.5822386 L163.891085,197.173379 L109.292998,149.990342 C106.597504,147.660928 102.232461,147.660928 99.5369672,149.990342 C96.8414734,152.319757 96.8414734,156.091977 99.5369672,158.421391 L165.503284,215.42872 C165.624358,215.555379 165.751804,215.682037 165.891996,215.803189 C167.236556,216.965143 169.001691,217.548873 170.766825,217.548873 L170.785942,217.548873 L170.805059,217.548873 C172.570193,217.548873 174.335327,216.965143 175.679888,215.803189 C175.820079,215.682037 175.947526,215.555379 176.0686,215.42872 L242.034916,158.421391 C244.736782,156.08647 244.736782,152.31425 242.047661,149.984835 L242.047661,149.984835 Z"></path>
                        </g>
                    </g>
                    <text id=".WEBVTT" font-family="DINAlternate-Bold, DIN Alternate" font-size="72.7538905" font-weight="bold" fill="#99D1EE">
                        <tspan x="27.0233668" y="290.166987">.WEBVTT</tspan>
                    </text>
                </g>
                <g id="json" transform="translate(749.385511, 0.000000)">
                    <g id="Group" fill="#85D0F1">
                        <g id="Shape">
                            <path d="M274.71951,371.719775 L66.8517426,371.719775 C30.0706064,371.719775 0.147802098,348.221874 0.147802098,319.338234 L0.147802098,52.5018624 C0.147802098,23.6182225 30.0706064,0.120321399 66.8517426,0.120321399 L274.726523,0.120321399 C311.507659,0.120321399 341.430463,23.6182225 341.430463,52.5018624 L341.430463,319.338234 C341.423451,348.221874 311.500646,371.719775 274.71951,371.719775 L274.71951,371.719775 Z M66.8517426,19.2402447 C43.4997533,19.2402447 24.4955819,34.1639175 24.4955819,52.5018624 L24.4955819,319.338234 C24.4955819,337.676179 43.4997533,352.599852 66.8517426,352.599852 L274.71951,352.599852 C298.071499,352.599852 317.075671,337.676179 317.075671,319.338234 L317.082683,52.5018624 C317.082683,34.1639175 298.078512,19.2402447 274.726523,19.2402447 L66.8517426,19.2402447 L66.8517426,19.2402447 Z"></path>
                            <path d="M242.047661,149.984835 C239.352167,147.655421 234.987124,147.655421 232.29163,149.984835 L177.693543,197.167872 L177.693543,73.5822386 C177.693543,70.2891182 174.602965,67.6182764 170.792314,67.6182764 C166.981663,67.6182764 163.891085,70.2891182 163.891085,73.5822386 L163.891085,197.173379 L109.292998,149.990342 C106.597504,147.660928 102.232461,147.660928 99.5369672,149.990342 C96.8414734,152.319757 96.8414734,156.091977 99.5369672,158.421391 L165.503284,215.42872 C165.624358,215.555379 165.751804,215.682037 165.891996,215.803189 C167.236556,216.965143 169.001691,217.548873 170.766825,217.548873 L170.785942,217.548873 L170.805059,217.548873 C172.570193,217.548873 174.335327,216.965143 175.679888,215.803189 C175.820079,215.682037 175.947526,215.555379 176.0686,215.42872 L242.034916,158.421391 C244.736782,156.08647 244.736782,152.31425 242.047661,149.984835 L242.047661,149.984835 Z"></path>
                        </g>
                    </g>
                    <text id=".JSON" font-family="DINAlternate-Bold, DIN Alternate" font-size="72.7538905" font-weight="bold" fill="#99D1EE">
                        <tspan x="71.4564195" y="291.058579">.JSON</tspan>
                    </text>
                </g>
            </g>
        </g>
    </g>
</svg>