<?xml version="1.0" encoding="UTF-8" standalone="no"?>
<svg width="1214px" height="365px" viewBox="0 0 1214 365" version="1.1" xmlns="http://www.w3.org/2000/svg" xmlns:xlink="http://www.w3.org/1999/xlink">
    <!-- Generator: Sketch 3.8.3 (29802) - http://www.bohemiancoding.com/sketch -->
    <title>edit</title>
    <desc>Created with Sketch.</desc>
    <defs></defs>
    <g id="Page-1" stroke="none" stroke-width="1" fill="none" fill-rule="evenodd">
        <g id="Artboard-4" transform="translate(-112.000000, -928.000000)" fill="#85D0F1">
            <g id="edit" transform="translate(112.000000, 928.000000)">
                <g id="Group">
                    <g>
                        <path d="M210.741015,351.662934 C210.741015,359.025516 205.003017,364.810402 197.700111,364.810402 L35.47126,364.810402 C16.1707215,364.810402 0,349.033441 0,329.049289 L0,36.6496005 C0,17.1913478 15.6490853,0.888487439 35.47126,0.888487439 L408.962762,0.888487439 C428.263301,0.888487439 444.434022,16.6654491 444.434022,36.6496005 L444.434022,56.6337519 C444.434022,63.996334 438.696024,69.7812199 431.393118,69.7812199 C424.090211,69.7812199 418.352213,63.996334 418.352213,56.6337519 L418.352213,36.6496005 C418.352213,31.3906133 414.179124,27.1834235 408.962762,27.1834235 L35.47126,27.1834235 C30.2548982,27.1834235 26.0818088,31.3906133 26.0818088,36.6496005 L26.0818088,85.5581815 L385.489134,85.5581815 C392.792041,85.5581815 398.530038,91.3430675 398.530038,98.7056496 C398.530038,106.068232 392.792041,111.853118 385.489134,111.853118 L26.603445,111.853118 L26.603445,329.049289 C26.603445,334.308277 30.7765344,338.515466 35.9928961,338.515466 L198.221747,338.515466 C205.003017,338.515466 210.741015,344.300352 210.741015,351.662934 L210.741015,351.662934 Z M88.6781499,56.6337519 C88.6781499,64.5222327 94.937784,71.3589161 103.283963,71.3589161 C111.630142,71.3589161 117.889776,65.0481314 117.889776,56.6337519 C117.889776,48.7452711 111.630142,41.9085877 103.283963,41.9085877 C94.937784,41.9085877 88.6781499,48.2193723 88.6781499,56.6337519 L88.6781499,56.6337519 Z M136.147042,56.6337519 C136.147042,64.5222327 142.406676,71.3589161 150.752855,71.3589161 C159.099034,71.3589161 165.358668,65.0481314 165.358668,56.6337519 C165.358668,48.7452711 159.099034,41.9085877 150.752855,41.9085877 C142.406676,41.9085877 136.147042,48.2193723 136.147042,56.6337519 L136.147042,56.6337519 Z M41.2092579,56.6337519 C41.2092579,64.5222327 47.468892,71.3589161 55.8150708,71.3589161 C64.1612497,71.3589161 70.4208838,65.0481314 70.4208838,56.6337519 C70.4208838,48.7452711 64.1612497,41.9085877 55.8150708,41.9085877 C47.468892,41.9085877 41.2092579,48.2193723 41.2092579,56.6337519 L41.2092579,56.6337519 Z M513.811633,135.51856 C514.33327,137.096256 514.33327,138.673952 514.33327,139.72575 C513.811633,145.510636 511.203453,150.769623 507.551999,154.976813 C467.386014,194.945116 357.320781,306.435644 317.676431,346.403947 C314.546614,349.559339 310.373525,351.662934 305.678799,352.714732 C292.116259,355.344225 279.075354,358.499618 265.512814,361.129111 L254.036818,363.758605 C252.471909,364.284504 251.428637,364.284504 249.863728,364.284504 C244.12573,364.284504 239.431005,361.65501 235.779552,357.44782 C232.128098,353.240631 231.084826,347.455745 232.128098,341.670859 L233.693007,333.782378 C236.822824,319.057214 239.952641,303.806151 243.082458,289.080987 C244.12573,284.873797 246.212275,281.192506 249.342092,278.037113 C258.209907,269.096835 266.556086,260.156557 275.423901,251.742177 L304.635527,222.291849 C344.801512,181.797647 415.744032,110.275421 439.21766,86.609979 C444.955658,80.825093 450.693656,79.7732956 454.345109,79.7732956 L456.95329,79.7732956 L457.996563,79.7732956 C461.648016,80.2991943 465.821105,80.825093 469.994195,82.4027892 C488.773097,89.7653713 502.335638,103.438738 510.681816,122.371092 C512.246725,126.052383 512.768361,129.207775 513.289997,132.363168 C513.289997,133.940864 513.289997,134.992661 513.811633,135.51856 L513.811633,135.51856 Z M455.910018,169.701977 L425.133483,138.673952 C393.835313,170.227876 351.582783,213.351571 323.414429,241.224203 L293.681167,270.674531 C285.334988,279.088911 276.467173,288.029189 268.120994,296.443569 C265.512814,309.591037 262.382997,322.738505 259.774816,335.885973 C272.81572,333.256479 285.856624,330.101087 298.897529,327.471593 C330.717336,295.391771 405.832945,219.662355 455.910018,169.701977 L455.910018,169.701977 Z M487.208188,137.622155 C486.686552,136.044459 486.686552,134.466763 486.164916,133.414965 C480.948554,120.793396 472.080739,112.379016 459.561471,107.120029 C458.518199,106.59413 457.474926,106.59413 455.910018,106.59413 L442.869113,119.741598 L473.645648,150.769623 C478.86201,146.036534 483.556735,141.829345 487.208188,137.622155 L487.208188,137.622155 Z M343.236604,149.191927 C343.236604,141.829345 337.498606,136.044459 330.195699,136.044459 L65.7261582,136.044459 C58.4232517,136.044459 52.6852538,141.829345 52.6852538,149.191927 C52.6852538,156.554509 58.4232517,162.339395 65.7261582,162.339395 L330.195699,162.339395 C336.97697,162.339395 343.236604,156.554509 343.236604,149.191927 L343.236604,149.191927 Z M65.7261582,186.530736 C58.4232517,186.530736 52.6852538,192.315622 52.6852538,199.678204 C52.6852538,207.040786 58.4232517,212.825672 65.7261582,212.825672 L267.077722,212.825672 C274.380629,212.825672 280.118627,207.040786 280.118627,199.678204 C280.118627,192.315622 274.380629,186.530736 267.077722,186.530736 L65.7261582,186.530736 L65.7261582,186.530736 Z M236.822824,250.164481 C236.822824,242.801899 231.084826,237.017013 223.78192,237.017013 L65.7261582,237.017013 C58.4232517,237.017013 52.6852538,242.801899 52.6852538,250.164481 C52.6852538,257.527063 58.4232517,263.311949 65.7261582,263.311949 L223.78192,263.311949 C231.084826,263.311949 236.822824,257.527063 236.822824,250.164481 L236.822824,250.164481 Z M199.786655,287.50329 L65.7261582,287.50329 C58.4232517,287.50329 52.6852538,293.288176 52.6852538,300.650758 C52.6852538,308.013341 58.4232517,313.798226 65.7261582,313.798226 L199.786655,313.798226 C207.089562,313.798226 212.82756,308.013341 212.82756,300.650758 C212.82756,293.288176 207.089562,287.50329 199.786655,287.50329 L199.786655,287.50329 Z" id="Shape"></path>
                    </g>
                </g>
                <path d="M607.680591,122.232642 L598.598891,132.641453 C608.327841,141.001985 619.956477,145.182188 633.485147,145.182188 C654.404479,144.931372 665.093638,136.069341 665.552945,118.595829 C665.552945,112.116417 663.52785,106.43134 659.4776,101.540429 C655.385595,96.5659125 649.059784,93.4934631 640.499978,92.3229886 C636.157442,91.779554 632.733571,91.2988306 630.228261,90.880804 C625.718705,90.0447508 622.440974,88.5398776 620.394972,86.3661393 C618.348969,84.2342036 617.325983,81.8514878 617.325983,79.2179202 C617.409494,74.8286409 618.933534,71.5262803 621.89815,69.3107393 C624.7375,67.1788036 628.286635,66.1128518 632.545661,66.1128518 C640.771426,66.2800624 648.308118,68.6209763 655.155963,73.1356636 L662.859751,61.7235944 C654.466965,55.6622087 644.592019,52.5061552 633.234617,52.2553393 C623.797953,52.3389446 616.511788,54.8052645 611.375904,59.6543731 C606.072999,64.5452843 603.421587,70.9827974 603.421587,78.9671055 C603.421587,85.6137284 605.53019,91.2570029 609.747461,95.8970981 C613.839466,100.411785 619.810363,103.317027 627.660332,104.612909 C632.044623,105.239949 636.073935,105.804277 639.748389,106.305908 C647.765378,107.685396 651.732058,111.781995 651.648548,118.595829 C651.481527,126.914558 645.468875,131.157465 633.610412,131.324675 C623.589175,131.24107 614.945988,128.210423 607.680591,122.232642 L607.680591,122.232642 Z M693.988062,66.1128518 L713.967803,66.1128518 C717.725767,66.0292465 721.024375,66.8861881 723.863725,68.6837025 C725.742707,69.7705717 727.204116,71.2545439 728.247995,73.1356636 C729.250118,75.2257966 729.751173,77.7966216 729.751173,80.8482158 C729.751173,84.5268499 728.519414,87.8710125 726.05586,90.880804 C723.46704,93.9742009 719.604747,95.5626781 714.468863,95.6462834 L693.988062,95.6462834 L693.988062,66.1128518 Z M680.146298,144.429744 L693.988062,144.429744 L693.988062,108.751352 L715.032554,108.751352 C724.427464,108.584141 731.567488,105.574395 736.452841,99.7220224 C741.212929,94.1622686 743.592937,87.9964688 743.592937,81.2244378 C743.592937,76.2081186 742.65346,71.8607072 740.774478,68.1820731 C738.979006,64.378031 736.640753,61.4518887 733.759647,59.4035584 C730.335725,56.6863855 726.953608,54.8888981 723.613196,54.0110422 C720.272783,53.3421996 716.807158,53.0077834 713.216214,53.0077834 L680.146298,53.0077834 L680.146298,144.429744 Z M756.182053,144.429744 L814.492833,144.429744 L814.492833,131.324675 L770.023817,131.324675 L770.023817,104.487502 L807.979062,104.487502 L807.979062,92.1975812 L770.023817,92.1975812 L770.023817,66.1128518 L814.492833,66.1128518 L814.492833,53.0077834 L756.182053,53.0077834 L756.182053,144.429744 Z M843.67954,111.698425 L856.89498,71.7561827 L857.14551,71.7561827 L870.36095,111.698425 L843.67954,111.698425 Z M881.384255,144.429744 L895.977608,144.429744 L862.782427,53.0077834 L851.19543,53.0077834 L818.000249,144.429744 L832.656234,144.429744 L839.671065,123.988345 L874.306792,123.988345 L881.384255,144.429744 Z M905.748265,144.429744 L919.59003,144.429744 L919.59003,116.589311 L935.623929,99.7220224 L960.488998,144.429744 L976.898692,144.429744 L944.580364,89.0623974 L973.829703,53.0077834 L957.42001,53.0077834 L919.840559,100.098244 L919.59003,100.098244 L919.59003,53.0077834 L905.748265,53.0077834 L905.748265,144.429744 Z M986.544084,144.429744 L1044.85486,144.429744 L1044.85486,131.324675 L1000.38585,131.324675 L1000.38585,104.487502 L1038.34109,104.487502 L1038.34109,92.1975812 L1000.38585,92.1975812 L1000.38585,66.1128518 L1044.85486,66.1128518 L1044.85486,53.0077834 L986.544084,53.0077834 L986.544084,144.429744 Z M1071.72417,65.3604077 L1093.39499,65.3604077 C1097.82103,65.3604077 1101.20315,66.3009534 1103.54144,68.1820731 C1106.50606,70.3140088 1108.0301,73.7626765 1108.11361,78.5281797 C1108.11361,82.4994324 1106.84009,85.8435951 1104.29303,88.560768 C1101.70421,91.4869542 1097.82104,92.9918274 1092.6434,93.0754327 L1071.72417,93.0754327 L1071.72417,65.3604077 Z M1057.88241,144.429744 L1071.72417,144.429744 L1071.72417,105.365353 L1089.38651,105.365353 L1108.23887,144.429744 L1124.7112,144.429744 L1103.54144,103.860465 C1115.14937,99.3875804 1121.03676,90.9435698 1121.20378,78.5281797 C1120.95325,70.0840424 1117.92605,63.5838263 1112.12208,59.0273363 C1107.32024,55.014281 1101.11969,53.0077834 1093.52025,53.0077834 L1057.88241,53.0077834 L1057.88241,144.429744 Z M1182.08249,66.8652959 L1182.08249,144.429744 L1195.17267,144.429744 L1195.17267,53.0077834 L1182.08249,53.0077834 L1169.11758,62.4760385 L1169.11758,76.3962547 L1182.08249,66.8652959 Z M607.680591,267.772056 L598.598891,278.180866 C608.327841,286.541398 619.956477,290.721601 633.485147,290.721601 C654.404479,290.470785 665.093638,281.608754 665.552945,264.135243 C665.552945,257.65583 663.52785,251.970754 659.4776,247.079843 C655.385595,242.105326 649.059784,239.032877 640.499978,237.862402 C636.157442,237.318967 632.733571,236.838244 630.228261,236.420218 C625.718705,235.584164 622.440974,234.079291 620.394972,231.905553 C618.348969,229.773617 617.325983,227.390901 617.325983,224.757334 C617.409494,220.368054 618.933534,217.065694 621.89815,214.850153 C624.7375,212.718217 628.286635,211.652265 632.545661,211.652265 C640.771426,211.819476 648.308118,214.16039 655.155963,218.675077 L662.859751,207.263008 C654.466965,201.201622 644.592019,198.045569 633.234617,197.794753 C623.797953,197.878358 616.511788,200.344678 611.375904,205.193787 C606.072999,210.084698 603.421587,216.522211 603.421587,224.506519 C603.421587,231.153142 605.53019,236.796416 609.747461,241.436512 C613.839466,245.951199 619.810363,248.85644 627.660332,250.152323 C632.044623,250.779363 636.073935,251.34369 639.748389,251.845322 C647.765378,253.22481 651.732058,257.321409 651.648548,264.135243 C651.481527,272.453972 645.468875,276.696878 633.610412,276.864089 C623.589175,276.780484 614.945988,273.749836 607.680591,267.772056 L607.680591,267.772056 Z M693.988062,211.652265 L713.967803,211.652265 C717.725767,211.56866 721.024375,212.425602 723.863725,214.223116 C725.742707,215.309985 727.204116,216.793957 728.247995,218.675077 C729.250118,220.76521 729.751173,223.336035 729.751173,226.387629 C729.751173,230.066263 728.519414,233.410426 726.05586,236.420218 C723.46704,239.513614 719.604747,241.102092 714.468863,241.185697 L693.988062,241.185697 L693.988062,211.652265 Z M680.146298,289.969157 L693.988062,289.969157 L693.988062,254.290765 L715.032554,254.290765 C724.427464,254.123555 731.567488,251.113808 736.452841,245.261436 C741.212929,239.701682 743.592937,233.535882 743.592937,226.763851 C743.592937,221.747532 742.65346,217.400121 740.774478,213.721487 C738.979006,209.917445 736.640753,206.991302 733.759647,204.942972 C730.335725,202.225799 726.953608,200.428312 723.613196,199.550456 C720.272783,198.881613 716.807158,198.547197 713.216214,198.547197 L680.146298,198.547197 L680.146298,289.969157 Z M756.182053,289.969157 L814.492833,289.969157 L814.492833,276.864089 L770.023817,276.864089 L770.023817,250.026915 L807.979062,250.026915 L807.979062,237.736995 L770.023817,237.736995 L770.023817,211.652265 L814.492833,211.652265 L814.492833,198.547197 L756.182053,198.547197 L756.182053,289.969157 Z M843.67954,257.237838 L856.89498,217.295596 L857.14551,217.295596 L870.36095,257.237838 L843.67954,257.237838 Z M881.384255,289.969157 L895.977608,289.969157 L862.782427,198.547197 L851.19543,198.547197 L818.000249,289.969157 L832.656234,289.969157 L839.671065,269.527759 L874.306792,269.527759 L881.384255,289.969157 Z M905.748265,289.969157 L919.59003,289.969157 L919.59003,262.128725 L935.623929,245.261436 L960.488998,289.969157 L976.898692,289.969157 L944.580364,234.601811 L973.829703,198.547197 L957.42001,198.547197 L919.840559,245.637658 L919.59003,245.637658 L919.59003,198.547197 L905.748265,198.547197 L905.748265,289.969157 Z M986.544084,289.969157 L1044.85486,289.969157 L1044.85486,276.864089 L1000.38585,276.864089 L1000.38585,250.026915 L1038.34109,250.026915 L1038.34109,237.736995 L1000.38585,237.736995 L1000.38585,211.652265 L1044.85486,211.652265 L1044.85486,198.547197 L986.544084,198.547197 L986.544084,289.969157 Z M1071.72417,210.899821 L1093.39499,210.899821 C1097.82103,210.899821 1101.20315,211.840367 1103.54144,213.721487 C1106.50606,215.853422 1108.0301,219.30209 1108.11361,224.067593 C1108.11361,228.038846 1106.84009,231.383009 1104.29303,234.100181 C1101.70421,237.026368 1097.82104,238.531241 1092.6434,238.614846 L1071.72417,238.614846 L1071.72417,210.899821 Z M1057.88241,289.969157 L1071.72417,289.969157 L1071.72417,250.904767 L1089.38651,250.904767 L1108.23887,289.969157 L1124.7112,289.969157 L1103.54144,249.399879 C1115.14937,244.926994 1121.03676,236.482983 1121.20378,224.067593 C1120.95325,215.623456 1117.92605,209.12324 1112.12208,204.56675 C1107.32024,200.553694 1101.11969,198.547197 1093.52025,198.547197 L1057.88241,198.547197 L1057.88241,289.969157 Z M1161.35116,289.969157 L1213.3987,289.969157 L1213.3987,276.864089 L1178.51244,276.864089 L1207.88705,239.994327 C1211.5615,235.312429 1213.3987,229.961769 1213.3987,223.942186 C1213.31519,216.417707 1210.78904,210.210105 1205.82018,205.319194 C1200.93482,200.38648 1194.56726,197.878358 1186.71729,197.794753 C1179.70242,197.878358 1173.79416,200.344678 1168.99232,205.193787 C1164.23223,210.168303 1161.6852,216.459509 1161.35116,224.067593 L1174.3787,224.067593 C1174.83801,219.887327 1176.29942,216.64767 1178.76297,214.348523 C1181.14302,212.049377 1184.12847,210.899821 1187.71941,210.899821 C1191.76966,210.983426 1194.90125,212.300191 1197.11427,214.850153 C1199.24378,217.400115 1200.30852,220.38896 1200.30852,223.816779 C1200.30852,225.112661 1200.14151,226.492128 1199.80747,227.955221 C1199.3064,229.50192 1198.36693,231.174001 1196.98901,232.971515 L1161.35116,277.616533 L1161.35116,289.969157 Z" id="SPEAKER-1"></path>
            </g>
        </g>
    </g>
</svg>