<?xml version="1.0" encoding="UTF-8" standalone="no"?>
<svg width="814px" height="440px" viewBox="0 0 814 440" version="1.1" xmlns="http://www.w3.org/2000/svg" xmlns:xlink="http://www.w3.org/1999/xlink">
    <!-- Generator: Sketch 3.8.3 (29802) - http://www.bohemiancoding.com/sketch -->
    <title>privacy</title>
    <desc>Created with Sketch.</desc>
    <defs></defs>
    <g id="Page-1" stroke="none" stroke-width="1" fill="none" fill-rule="evenodd">
        <g id="Artboard-4" transform="translate(-5195.000000, -856.000000)">
            <g id="privacy" transform="translate(5195.000000, 856.000000)">
                <g id="private">
                    <path d="M228.28326,223.909724 C228.28326,197.613236 207.102339,176.576046 180.626188,176.576046 C154.591306,176.576046 133.410385,197.613236 132.969115,223.033174 C132.969115,224.347999 132.527846,235.304869 132.527846,235.304869 C132.527846,235.304869 132.086577,237.934517 131.204039,238.811067 L128.997693,241.440716 C128.115154,242.317265 127.673885,243.63209 127.673885,245.385189 C127.673885,245.385189 127.673885,248.014838 128.115154,251.082761 L128.115154,251.082761 C128.115154,251.082761 129.880231,263.354456 134.734192,267.298929 C134.734192,267.298929 142.677038,272.119951 144.000845,273.873051 C145.324653,275.62615 146.64846,278.694073 146.64846,283.953371 C146.64846,283.953371 148.413537,303.237462 139.588153,311.126408 C137.381807,312.879508 135.175461,314.194332 133.851654,314.632607 L85.3120431,337.422896 L85.3120431,337.422896 L76.0453901,341.805644 C73.8390442,343.120469 72.0739674,345.311843 72.0739674,348.379766 C72.0739674,348.379766 72.0739674,348.379766 72.0739674,348.818041 L72.0739674,348.818041 C72.0739674,348.818041 72.0739674,348.818041 72.0739674,349.256316 L72.0739674,350.132865 C72.0739674,350.57114 72.0739674,351.009415 72.5152366,351.44769 C72.9565058,351.885964 73.397775,353.200789 74.2803133,354.515613 L74.2803133,354.515613 C76.4866593,357.145262 81.7818895,363.281109 92.3723501,371.60833 L92.8136193,371.60833 C116.200886,390.015872 145.765922,401.411016 177.978573,401.411016 L182.391264,401.411016 C214.603915,401.411016 244.168951,390.454147 267.556218,371.60833 L267.997487,371.60833 C278.587947,363.281109 283.883178,357.145262 286.089524,354.515613 L286.089524,354.515613 C286.972062,353.200789 287.413331,352.324239 287.8546,351.44769 C287.8546,351.009415 288.29587,350.57114 288.29587,350.132865 L288.29587,349.256316 C288.29587,349.256316 288.29587,349.256316 288.29587,348.818041 L288.29587,348.818041 C288.29587,348.818041 288.29587,348.818041 288.29587,348.379766 C288.29587,345.750117 286.530793,343.120469 284.324447,341.805644 L275.057794,337.422896 L275.057794,337.422896 L226.518183,314.632607 C225.194376,314.194332 222.98803,312.879508 220.781684,311.126408 C211.9563,303.237462 213.721377,283.953371 213.721377,283.953371 C213.721377,279.132348 215.045184,276.064425 216.368992,273.873051 C217.6928,272.119951 225.635645,267.298929 225.635645,267.298929 C230.489606,263.354456 232.254683,251.082761 232.254683,251.082761 L232.254683,251.082761 C232.695952,247.576563 232.695952,245.385189 232.695952,245.385189 C232.695952,243.63209 232.254683,241.878991 231.372144,241.440716 L229.165798,238.811067 C228.28326,237.934517 227.841991,235.304869 227.841991,235.304869" id="Shape" fill="#85D0F1"></path>
                    <path d="M225.399112,99.9609609 L353.592977,219.503674 C354.780514,237.176036 355.564904,253.901369 355.564904,267.250232 C355.564904,280.564244 348.633671,296.261636 346.154993,313.502403 L138.367922,119.737817 C137.722421,112.856693 131.807158,100.218837 136.071257,100.218837 L145.681119,100.218837 C196.597205,100.218837 151.414665,109.763488 201.807107,109.763488 C205.760569,109.763488 206.241365,101.180425 221.026831,100.218837 C222.442745,100.126751 223.901684,100.040898 225.399112,99.9609609 Z" id="Combined-Shape" fill="#A9037F"></path>
                    <path d="M238.805079,91.6286508 L238.805079,104.991162 C301.749677,128.85279 346.91603,189.461325 346.91603,260.568976 C346.91603,351.720394 271.959104,426.168673 180.184919,426.168673 C87.9302402,426.168673 13.4538072,351.720394 13.4538072,260.568976 C13.4538072,190.41579 57.6591739,130.284488 120.123279,105.945627 L120.123279,92.1058834 C50.4517772,116.921976 0.480493116,182.780069 0.480493116,260.091743 C0.480493116,358.878882 81.2033366,439.053952 180.184919,439.053952 C279.1665,439.053952 359.889344,358.878882 359.889344,260.568976 C359.889344,182.302836 309.437567,115.967511 238.805079,91.6286508 L238.805079,91.6286508 Z" id="Shape" fill="#85D0F1"></path>
                    <text id="PRIVATE" transform="translate(274.789998, 193.441205) rotate(43.000000) translate(-274.789998, -193.441205) " font-family="Soleil-ExtraBold, Soleil" font-size="40.5647673" font-weight="600" letter-spacing="0.0478125028" fill="#FFFFFF">
                        <tspan x="182.172771" y="206.807252">PRIVATE</tspan>
                    </text>
                    <path d="M213.819437,120.739837 C220.54634,120.739837 226.312258,115.490279 226.312258,108.33179 L226.312258,60.6085346 C226.312258,53.9272789 221.026833,48.6777207 214.780423,48.6777207 L214.780423,34.8379766 C214.780423,15.7486744 198.92415,0 179.704425,0 C160.484701,0 144.628428,15.7486744 144.628428,34.8379766 L144.628428,48.6777207 C138.382017,49.1549533 133.096593,54.4045114 133.096593,60.6085346 L133.096593,108.33179 C133.096593,115.013046 138.382017,120.739837 145.589414,120.739837 L213.819437,120.739837 L213.819437,120.739837 Z M189.314288,92.1058834 C189.314288,97.3554415 184.98985,102.127767 179.704425,102.127767 C174.419001,102.127767 170.094563,97.832674 170.094563,92.1058834 L170.094563,76.8344416 C170.094563,71.5848834 174.419001,66.8125579 179.704425,66.8125579 C184.98985,66.8125579 189.314288,71.1076509 189.314288,76.8344416 L189.314288,92.1058834 L189.314288,92.1058834 Z M193.158233,34.8379766 L193.158233,48.2004882 L179.704425,48.2004882 L166.250618,48.2004882 L166.250618,34.8379766 L166.250618,34.8379766 C166.250618,31.9745813 166.250618,29.1111859 167.211604,26.7250232 C167.211604,26.2477906 167.211604,26.2477906 167.692098,25.770558 C167.692098,25.2933255 167.692098,24.8160929 168.172591,24.8160929 C168.653084,23.8616278 168.653084,23.3843953 169.133577,22.9071627 C169.133577,22.9071627 169.133577,22.9071627 169.133577,22.4299301 C171.536042,18.6120697 175.379987,15.7486744 180.184919,15.7486744 C184.98985,16.2259069 188.833795,18.6120697 191.23626,22.4299301 C191.23626,22.4299301 191.23626,22.4299301 191.23626,22.9071627 C191.716753,23.3843953 191.716753,24.3388604 192.197246,24.8160929 C192.197246,25.2933255 192.197246,25.770558 192.67774,25.770558 C192.67774,26.2477906 192.67774,26.2477906 193.158233,26.7250232 C192.67774,29.1111859 193.158233,31.9745813 193.158233,34.8379766 L193.158233,34.8379766 L193.158233,34.8379766 Z" id="Shape" fill="#85D0F1"></path>
                </g>
                <g id="public" transform="translate(454.439712, 70.013218)">
                    <path d="M228.28326,145.034423 C228.28326,118.827076 207.102339,97.8611982 180.626188,97.8611982 C154.591306,97.8611982 133.410385,118.827076 132.969115,144.160845 C132.969115,145.471212 132.527846,156.39094 132.527846,156.39094 C132.527846,156.39094 132.086577,159.011675 131.204039,159.885253 L128.997693,162.505988 C128.115154,163.379566 127.673885,164.689933 127.673885,166.43709 C127.673885,166.43709 127.673885,169.057825 128.115154,172.115348 L128.115154,172.115348 C128.115154,172.115348 129.880231,184.345444 134.734192,188.276546 C134.734192,188.276546 142.677038,193.081226 144.000845,194.828383 C145.324653,196.575539 146.64846,199.633063 146.64846,204.874532 C146.64846,204.874532 148.413537,224.093254 139.588153,231.955458 C137.381807,233.702614 135.175461,235.012982 133.851654,235.449771 L85.3120431,258.162805 L85.3120431,258.162805 L76.0453901,262.530696 C73.8390442,263.841063 72.0739674,266.025009 72.0739674,269.082533 C72.0739674,269.082533 72.0739674,269.082533 72.0739674,269.519322 L72.0739674,269.519322 C72.0739674,269.519322 72.0739674,269.519322 72.0739674,269.956111 L72.0739674,270.829689 C72.0739674,271.266479 72.0739674,271.703268 72.5152366,272.140057 C72.9565058,272.576846 73.397775,273.887213 74.2803133,275.197581 L74.2803133,275.197581 C76.4866593,277.818315 81.7818895,283.933363 92.3723501,292.232356 L92.8136193,292.232356 C116.200886,310.577499 145.765922,321.934016 177.978573,321.934016 L182.391264,321.934016 C214.603915,321.934016 244.168951,311.014288 267.556218,292.232356 L267.997487,292.232356 C278.587947,283.933363 283.883178,277.818315 286.089524,275.197581 L286.089524,275.197581 C286.972062,273.887213 287.413331,273.013635 287.8546,272.140057 C287.8546,271.703268 288.29587,271.266479 288.29587,270.829689 L288.29587,269.956111 C288.29587,269.956111 288.29587,269.956111 288.29587,269.519322 L288.29587,269.519322 C288.29587,269.519322 288.29587,269.519322 288.29587,269.082533 C288.29587,266.461798 286.530793,263.841063 284.324447,262.530696 L275.057794,258.162805 L275.057794,258.162805 L226.518183,235.449771 C225.194376,235.012982 222.98803,233.702614 220.781684,231.955458 C211.9563,224.093254 213.721377,204.874532 213.721377,204.874532 C213.721377,200.069852 215.045184,197.012328 216.368992,194.828383 C217.6928,193.081226 225.635645,188.276546 225.635645,188.276546 C230.489606,184.345444 232.254683,172.115348 232.254683,172.115348 L232.254683,172.115348 C232.695952,168.621035 232.695952,166.43709 232.695952,166.43709 C232.695952,164.689933 232.254683,162.942777 231.372144,162.505988 L229.165798,159.885253 C228.28326,159.011675 227.841991,156.39094 227.841991,156.39094" id="Shape-Copy" fill="#85D0F1"></path>
                    <path d="M213.075214,9.9692792 L353.602593,141.01318 C354.784747,158.572949 355.564904,175.187485 355.564904,188.455155 C355.564904,201.826788 348.525906,217.610653 346.098215,234.949993 L120.03358,24.1413058 C119.159633,22.8082791 119.036383,21.9899681 120.123277,21.9899681 C123.283462,21.9899681 150.311423,7.43762599 177.782451,7.49438259 C182.296115,7.50370806 195.717993,8.50135427 213.075214,9.9692792 Z" id="Combined-Shape-Copy" fill="#2C6782"></path>
                    <path d="M238.324586,12.2505308 L238.324586,25.5677457 C301.269184,49.3484866 346.435537,109.751569 346.435537,180.618177 C346.435537,271.460607 271.478611,345.656519 179.704425,345.656519 C87.4497471,345.656519 12.9733141,271.460607 12.9733141,180.618177 C12.9733141,110.702798 57.1786808,50.7753311 119.642786,26.5189753 L119.642786,12.7261456 C49.9712841,37.4581162 0,103.092961 0,180.142562 C-8.53527233e-15,278.594829 80.7228435,358.498119 179.704425,358.498119 C278.686007,358.498119 359.408851,278.594829 359.408851,180.618177 C359.408851,102.617346 308.957074,36.5068865 238.324586,12.2505308 L238.324586,12.2505308 Z" id="Shape-Copy-2" fill="#99D1EE"></path>
                    <path d="M238.324586,12.2505308 L238.324586,25.5677457 C301.269184,49.3484866 346.435537,109.751569 346.435537,180.618177 C346.435537,271.460607 271.478611,345.656519 179.704425,345.656519 C87.4497471,345.656519 12.9733141,271.460607 12.9733141,180.618177 C12.9733141,110.702798 57.1786808,50.7753311 119.642786,26.5189753 L119.642786,12.7261456 C49.9712841,37.4581162 0,103.092961 0,180.142562 C-8.53527233e-15,278.594829 80.7228435,358.498119 179.704425,358.498119 C278.686007,358.498119 359.408851,278.594829 359.408851,180.618177 C359.408851,102.617346 308.957074,36.5068865 238.324586,12.2505308 L238.324586,12.2505308 Z" id="Shape-Copy-2" fill="#99D1EE"></path>
                    <path d="M233.519654,7.49438259 L233.519654,20.8115975 C296.464253,44.5923385 341.630606,104.99542 341.630606,175.862028 C341.630606,266.704459 266.673679,340.900371 174.899494,340.900371 C82.644816,340.900371 8.16838297,266.704459 8.16838297,175.862028 C8.16838297,105.94665 52.3737496,46.0191829 114.837855,21.7628272 L114.837855,7.96999741 C45.1663529,32.701968 -4.80493116,98.336813 -4.80493116,175.386414 C-4.80493116,273.838681 75.9179123,353.741971 174.899494,353.741971 C273.881076,353.741971 354.60392,273.838681 354.60392,175.862028 C354.60392,97.8611982 304.152142,31.7507383 233.519654,7.49438259 L233.519654,7.49438259 Z" id="Shape-Copy-2" fill="#85D0F1" transform="translate(174.899494, 180.618177) rotate(90.000000) translate(-174.899494, -180.618177) "></path>
                    <text id="PUBLIC" transform="translate(274.789998, 114.669187) rotate(43.000000) translate(-274.789998, -114.669187) " font-family="Soleil-ExtraBold, Soleil" font-size="40.4272596" font-weight="600" letter-spacing="0.0478125028" fill="#FFFFFF">
                        <tspan x="182.172771" y="128.132298">PUBLIC</tspan>
                    </text>
                </g>
            </g>
        </g>
    </g>
</svg>