<?xml version="1.0" encoding="UTF-8" standalone="no"?>
<svg width="508px" height="367px" viewBox="0 0 508 367" version="1.1" xmlns="http://www.w3.org/2000/svg" xmlns:xlink="http://www.w3.org/1999/xlink">
    <!-- Generator: Sketch 3.8.3 (29802) - http://www.bohemiancoding.com/sketch -->
    <title>FAST</title>
    <desc>Created with Sketch.</desc>
    <defs></defs>
    <g id="Page-1" stroke="none" stroke-width="1" fill="none" fill-rule="evenodd">
        <g id="Artboard-4" transform="translate(-1530.000000, -927.000000)" fill="#85D0F1">
            <g id="FAST" transform="translate(1529.000000, 926.000000)">
                <g id="time-speed" transform="translate(0.742569, 0.655410)">
                    <path d="M457.140775,44.7643632 C453.992008,41.3313747 448.674962,41.1168129 445.262864,44.2957151 C441.856369,47.4689709 441.643463,52.8273691 444.797833,56.266004 C472.626882,86.609557 488.746104,125.501703 490.695874,166.573345 L473.299217,166.573345 C468.660108,166.573345 464.895034,170.362054 464.895034,175.042889 C464.895034,179.723724 468.660108,183.512433 473.299217,183.512433 L490.690271,183.512433 C486.420947,273.295246 414.716463,345.557395 325.620924,349.859924 L325.620924,332.333614 C325.620924,327.658426 321.85585,323.86407 317.216742,323.86407 C312.577633,323.86407 308.812559,327.658426 308.812559,332.333614 L308.812559,349.859924 C219.71702,345.557395 148.012537,273.295246 143.743212,183.506787 L161.139869,183.506787 C165.784581,183.506787 169.544052,179.718077 169.544052,175.037243 C169.544052,170.356408 165.784581,166.567699 161.139869,166.567699 L143.838459,166.567699 C146.959212,102.633934 185.035761,44.4876915 242.7837,16.8374535 C246.980188,14.8329947 248.761875,9.77950014 246.767282,5.5503745 C244.778292,1.32124886 239.763797,-0.463001739 235.567308,1.53581065 C169.448804,33.1949661 126.721941,101.301393 126.721941,175.037243 C126.721941,280.89525 212.175668,367.013573 317.216742,367.013573 C422.257816,367.013573 507.711542,280.89525 507.711542,175.037243 C507.711542,126.585805 489.749003,80.3251553 457.140775,44.7643632 L457.140775,44.7643632 Z" id="Shape"></path>
                    <path d="M310.560629,149.798002 L219.106317,57.6380701 C215.823083,54.3293016 210.506037,54.3293016 207.222803,57.6380701 C203.939569,60.9411923 203.939569,66.3108832 207.222803,69.6140053 L296.391178,159.475867 C293.175177,163.834859 291.202996,169.187611 291.202996,175.042889 C291.202996,189.520163 302.84559,201.258951 317.216742,201.258951 C331.587893,201.258951 343.230487,189.525809 343.230487,175.042889 C343.230487,170.904105 342.188369,167.041993 340.50193,163.558187 L414.206609,89.2746401 C417.489843,85.971518 417.489843,80.6018271 414.206609,77.2987049 C410.923375,73.9899364 405.606329,73.9899364 402.323095,77.2987049 L328.612813,151.576606 C325.155893,149.865758 321.323585,148.821181 317.216742,148.821181 C314.90279,148.821181 312.695291,149.227719 310.560629,149.798002 L310.560629,149.798002 Z" id="Shape"></path>
                    <path d="M37.0773292,112.927253 L93.1052117,112.927253 C97.7499232,112.927253 101.509394,109.138544 101.509394,104.457709 C101.509394,99.7768747 97.7499232,95.9881653 93.1052117,95.9881653 L37.0773292,95.9881653 C32.4326178,95.9881653 28.6731469,99.7768747 28.6731469,104.457709 C28.6731469,109.138544 32.4326178,112.927253 37.0773292,112.927253 L37.0773292,112.927253 Z" id="Shape"></path>
                    <path d="M107.112182,166.567699 L9.063388,166.567699 C4.41867655,166.567699 0.659205632,170.356408 0.659205632,175.037243 C0.659205632,179.718077 4.41867655,183.506787 9.063388,183.506787 L107.112182,183.506787 C111.756894,183.506787 115.516365,179.718077 115.516365,175.037243 C115.516365,170.356408 111.756894,166.567699 107.112182,166.567699 L107.112182,166.567699 Z" id="Shape"></path>
                    <path d="M93.1052117,237.147232 L37.0773292,237.147232 C32.4326178,237.147232 28.6731469,240.941588 28.6731469,245.616776 C28.6731469,250.291964 32.4326178,254.08632 37.0773292,254.08632 L93.1052117,254.08632 C97.7499232,254.08632 101.509394,250.291964 101.509394,245.616776 C101.509394,240.941588 97.7499232,237.147232 93.1052117,237.147232 L93.1052117,237.147232 Z" id="Shape"></path>
                </g>
            </g>
        </g>
    </g>
</svg>