<?xml version="1.0" encoding="UTF-8" standalone="no"?>
<svg width="369px" height="366px" viewBox="0 0 369 366" version="1.1" xmlns="http://www.w3.org/2000/svg" xmlns:xlink="http://www.w3.org/1999/xlink">
    <!-- Generator: Sketch 3.8.3 (29802) - http://www.bohemiancoding.com/sketch -->
    <title>tplayer</title>
    <desc>Created with Sketch.</desc>
    <defs>
        <rect id="path-1" x="0" y="0" width="215.679173" height="60.1460092" rx="3"></rect>
        <mask id="mask-2" maskContentUnits="userSpaceOnUse" maskUnits="objectBoundingBox" x="0" y="0" width="215.679173" height="60.1460092" fill="white">
            <use xlink:href="#path-1"></use>
        </mask>
    </defs>
    <g id="Page-1" stroke="none" stroke-width="1" fill="none" fill-rule="evenodd">
        <g id="Artboard-4" transform="translate(-2391.000000, -926.000000)">
            <g id="tplayer" transform="translate(2391.000000, 926.000000)">
                <g id="Group">
                    <g transform="translate(0.584496, 0.000000)">
                        <path d="M337.321565,0 L30.6392574,0 C13.7623142,0 0,13.6813158 0,30.4589294 L0,335.264244 C0,352.113864 13.7623142,365.79518 30.6392574,365.79518 L337.249132,365.79518 C354.126075,365.79518 367.888389,352.113864 367.888389,335.336251 L367.888389,30.4589294 C367.960822,13.6813158 354.198508,0 337.321565,0 L337.321565,0 Z M347.534651,335.336251 C347.534651,340.952791 342.971357,345.489227 337.321565,345.489227 L30.6392574,345.489227 C24.9894653,345.489227 20.4261716,340.952791 20.4261716,335.336251 L20.4261716,30.4589294 C20.4261716,24.8423892 24.9894653,20.3059529 30.6392574,20.3059529 L337.249132,20.3059529 C342.898924,20.3059529 347.462217,24.8423892 347.462217,30.4589294 L347.462217,335.336251 L347.534651,335.336251 Z" id="Shape" fill="#85D0F1"></path>
                        <path d="M61.7193666,235.686757 L296.056388,235.686757 C306.33664,235.686757 314.63992,231.150321 314.63992,225.533781 C314.63992,219.91724 306.33664,215.380804 296.056388,215.380804 L61.7193666,215.380804 C51.4391148,215.380804 43.1358345,219.91724 43.1358345,225.533781 C43.1358345,231.150321 51.4391148,235.686757 61.7193666,235.686757 L61.7193666,235.686757 Z" id="Shape-Copy-4" fill="#85D0F1"></path>
                        <path d="M300.070811,175.849002 L58.2082869,175.849002 C50.0095573,175.849002 43.3875064,180.385438 43.3875064,186.001979 C43.3875064,191.618519 50.0095573,196.154955 58.2082869,196.154955 L300.070811,196.154955 C308.269541,196.154955 314.891592,191.618519 314.891592,186.001979 C314.891592,180.385438 308.269541,175.849002 300.070811,175.849002 L300.070811,175.849002 Z" id="Shape" fill="#85D0F1"></path>
                        <path d="M299.81914,254.046096 L57.956615,254.046096 C49.7578854,254.046096 43.1358345,258.582532 43.1358345,264.199072 C43.1358345,269.815612 49.7578854,274.352049 57.956615,274.352049 L299.81914,274.352049 C308.017869,274.352049 314.63992,269.815612 314.63992,264.199072 C314.63992,258.582532 308.017869,254.046096 299.81914,254.046096 L299.81914,254.046096 Z" id="Shape-Copy-5" fill="#85D0F1"></path>
                        <path d="M299.81914,297.007531 L57.956615,297.007531 C49.7578854,297.007531 43.1358345,301.543967 43.1358345,307.160507 C43.1358345,312.777048 49.7578854,317.313484 57.956615,317.313484 L299.81914,317.313484 C308.017869,317.313484 314.63992,312.777048 314.63992,307.160507 C314.63992,301.543967 308.017869,297.007531 299.81914,297.007531 L299.81914,297.007531 Z" id="Shape-Copy-6" fill="#85D0F1"></path>
                        <path d="M54.5157157,66.3756695 C52.6269387,64.498009 49.7465539,63.9347109 47.2439244,64.9204826 C44.7412949,65.9531959 43.1358345,68.3472131 43.1358345,71.0228793 L43.1358345,119.935936 C43.1358345,122.611602 44.7412949,125.052561 47.2439244,126.038332 C50.4548452,127.305753 53.2407912,125.850566 54.5157157,124.583146 L79.1170355,100.126617 C81.7141038,97.5448341 81.7141038,93.3670394 79.1170355,90.7383147 L54.5157157,66.3756695 L54.5157157,66.3756695 Z M56.4989315,103.975821 L56.4989315,87.0768767 L64.9984278,95.526349 L56.4989315,103.975821 L56.4989315,103.975821 Z" id="Shape" fill="#85D0F1"></path>
                        <g id="Group-3" transform="translate(94.898836, 64.442153)">
                            <use id="Rectangle-40" stroke="#C9ECFB" mask="url(#mask-2)" stroke-width="24" xlink:href="#path-1"></use>
                            <rect id="Rectangle-41" fill="#C9EBFA" x="0" y="0" width="84.8230044" height="60.1460092"></rect>
                        </g>
                    </g>
                </g>
            </g>
        </g>
    </g>
</svg>